<svg width="28" height="21" viewBox="0 0 28 21" fill="none" xmlns="http://www.w3.org/2000/svg">
<rect y="0.857178" width="28" height="20" rx="2" fill="white"/>
<mask id="mask0_1216_21023" style="mask-type:luminance" maskUnits="userSpaceOnUse" x="0" y="0" width="28" height="21">
<rect y="0.857178" width="28" height="20" rx="2" fill="white"/>
</mask>
<g mask="url(#mask0_1216_21023)">
<path fill-rule="evenodd" clip-rule="evenodd" d="M28 0.857178H0V2.19051H28V0.857178ZM28 3.52384H0V4.85718H28V3.52384ZM0 6.19051H28V7.52384H0V6.19051ZM28 8.85718H0V10.1905H28V8.85718ZM0 11.5238H28V12.8572H0V11.5238ZM28 14.1905H0V15.5238H28V14.1905ZM0 16.8572H28V18.1905H0V16.8572ZM28 19.5238H0V20.8572H28V19.5238Z" fill="#D02F44"/>
<rect y="0.857178" width="12" height="9.33333" fill="#46467F"/>
<g filter="url(#filter0_d_1216_21023)">
<path fill-rule="evenodd" clip-rule="evenodd" d="M2.66671 2.8571C2.66671 3.22529 2.36823 3.52376 2.00004 3.52376C1.63185 3.52376 1.33337 3.22529 1.33337 2.8571C1.33337 2.48891 1.63185 2.19043 2.00004 2.19043C2.36823 2.19043 2.66671 2.48891 2.66671 2.8571ZM5.33337 2.8571C5.33337 3.22529 5.0349 3.52376 4.66671 3.52376C4.29852 3.52376 4.00004 3.22529 4.00004 2.8571C4.00004 2.48891 4.29852 2.19043 4.66671 2.19043C5.0349 2.19043 5.33337 2.48891 5.33337 2.8571ZM7.33337 3.52376C7.70156 3.52376 8.00004 3.22529 8.00004 2.8571C8.00004 2.48891 7.70156 2.19043 7.33337 2.19043C6.96518 2.19043 6.66671 2.48891 6.66671 2.8571C6.66671 3.22529 6.96518 3.52376 7.33337 3.52376ZM10.6667 2.8571C10.6667 3.22529 10.3682 3.52376 10 3.52376C9.63185 3.52376 9.33337 3.22529 9.33337 2.8571C9.33337 2.48891 9.63185 2.19043 10 2.19043C10.3682 2.19043 10.6667 2.48891 10.6667 2.8571ZM3.33337 4.8571C3.70156 4.8571 4.00004 4.55862 4.00004 4.19043C4.00004 3.82224 3.70156 3.52376 3.33337 3.52376C2.96518 3.52376 2.66671 3.82224 2.66671 4.19043C2.66671 4.55862 2.96518 4.8571 3.33337 4.8571ZM6.66671 4.19043C6.66671 4.55862 6.36823 4.8571 6.00004 4.8571C5.63185 4.8571 5.33337 4.55862 5.33337 4.19043C5.33337 3.82224 5.63185 3.52376 6.00004 3.52376C6.36823 3.52376 6.66671 3.82224 6.66671 4.19043ZM8.66671 4.8571C9.0349 4.8571 9.33337 4.55862 9.33337 4.19043C9.33337 3.82224 9.0349 3.52376 8.66671 3.52376C8.29852 3.52376 8.00004 3.82224 8.00004 4.19043C8.00004 4.55862 8.29852 4.8571 8.66671 4.8571ZM10.6667 5.52376C10.6667 5.89195 10.3682 6.19043 10 6.19043C9.63185 6.19043 9.33337 5.89195 9.33337 5.52376C9.33337 5.15557 9.63185 4.8571 10 4.8571C10.3682 4.8571 10.6667 5.15557 10.6667 5.52376ZM7.33337 6.19043C7.70156 6.19043 8.00004 5.89195 8.00004 5.52376C8.00004 5.15557 7.70156 4.8571 7.33337 4.8571C6.96518 4.8571 6.66671 5.15557 6.66671 5.52376C6.66671 5.89195 6.96518 6.19043 7.33337 6.19043ZM5.33337 5.52376C5.33337 5.89195 5.0349 6.19043 4.66671 6.19043C4.29852 6.19043 4.00004 5.89195 4.00004 5.52376C4.00004 5.15557 4.29852 4.8571 4.66671 4.8571C5.0349 4.8571 5.33337 5.15557 5.33337 5.52376ZM2.00004 6.19043C2.36823 6.19043 2.66671 5.89195 2.66671 5.52376C2.66671 5.15557 2.36823 4.8571 2.00004 4.8571C1.63185 4.8571 1.33337 5.15557 1.33337 5.52376C1.33337 5.89195 1.63185 6.19043 2.00004 6.19043ZM4.00004 6.8571C4.00004 7.22529 3.70156 7.52376 3.33337 7.52376C2.96518 7.52376 2.66671 7.22529 2.66671 6.8571C2.66671 6.48891 2.96518 6.19043 3.33337 6.19043C3.70156 6.19043 4.00004 6.48891 4.00004 6.8571ZM6.00004 7.52376C6.36823 7.52376 6.66671 7.22529 6.66671 6.8571C6.66671 6.48891 6.36823 6.19043 6.00004 6.19043C5.63185 6.19043 5.33337 6.48891 5.33337 6.8571C5.33337 7.22529 5.63185 7.52376 6.00004 7.52376ZM9.33337 6.8571C9.33337 7.22529 9.0349 7.52376 8.66671 7.52376C8.29852 7.52376 8.00004 7.22529 8.00004 6.8571C8.00004 6.48891 8.29852 6.19043 8.66671 6.19043C9.0349 6.19043 9.33337 6.48891 9.33337 6.8571ZM10 8.8571C10.3682 8.8571 10.6667 8.55862 10.6667 8.19043C10.6667 7.82224 10.3682 7.52376 10 7.52376C9.63185 7.52376 9.33337 7.82224 9.33337 8.19043C9.33337 8.55862 9.63185 8.8571 10 8.8571ZM8.00004 8.19043C8.00004 8.55862 7.70156 8.8571 7.33337 8.8571C6.96518 8.8571 6.66671 8.55862 6.66671 8.19043C6.66671 7.82224 6.96518 7.52376 7.33337 7.52376C7.70156 7.52376 8.00004 7.82224 8.00004 8.19043ZM4.66671 8.8571C5.0349 8.8571 5.33337 8.55862 5.33337 8.19043C5.33337 7.82224 5.0349 7.52376 4.66671 7.52376C4.29852 7.52376 4.00004 7.82224 4.00004 8.19043C4.00004 8.55862 4.29852 8.8571 4.66671 8.8571ZM2.66671 8.19043C2.66671 8.55862 2.36823 8.8571 2.00004 8.8571C1.63185 8.8571 1.33337 8.55862 1.33337 8.19043C1.33337 7.82224 1.63185 7.52376 2.00004 7.52376C2.36823 7.52376 2.66671 7.82224 2.66671 8.19043Z" fill="url(#paint0_linear_1216_21023)"/>
</g>
</g>
<defs>
<filter id="filter0_d_1216_21023" x="1.33337" y="2.19043" width="9.33337" height="7.66675" filterUnits="userSpaceOnUse" color-interpolation-filters="sRGB">
<feFlood flood-opacity="0" result="BackgroundImageFix"/>
<feColorMatrix in="SourceAlpha" type="matrix" values="0 0 0 0 0 0 0 0 0 0 0 0 0 0 0 0 0 0 127 0" result="hardAlpha"/>
<feOffset dy="1"/>
<feColorMatrix type="matrix" values="0 0 0 0 0 0 0 0 0 0 0 0 0 0 0 0 0 0 0.06 0"/>
<feBlend mode="normal" in2="BackgroundImageFix" result="effect1_dropShadow_1216_21023"/>
<feBlend mode="normal" in="SourceGraphic" in2="effect1_dropShadow_1216_21023" result="shape"/>
</filter>
<linearGradient id="paint0_linear_1216_21023" x1="1.33337" y1="2.19043" x2="1.33337" y2="8.8571" gradientUnits="userSpaceOnUse">
<stop stop-color="white"/>
<stop offset="1" stop-color="#F0F0F0"/>
</linearGradient>
</defs>
</svg>
